<?xml version="1.0" encoding="UTF-8" standalone="no"?>
<!-- Created with Inkscape (http://www.inkscape.org/) -->

<svg
   version="1.1"
   id="svg1"
   width="382"
   height="200"
   viewBox="0 0 1528 799.99997"
   sodipodi:docname="HomeOnFire-01-wide.svg"
   inkscape:version="1.4.4 (dcaf3e7, 2026-05-05)"
   inkscape:export-filename="HomeOnFire-01-wide.svg"
   inkscape:export-xdpi="31.52"
   inkscape:export-ydpi="31.52"
   xmlns:inkscape="http://www.inkscape.org/namespaces/inkscape"
   xmlns:sodipodi="http://sodipodi.sourceforge.net/DTD/sodipodi-0.dtd"
   xmlns:xlink="http://www.w3.org/1999/xlink"
   xmlns="http://www.w3.org/2000/svg"
   xmlns:svg="http://www.w3.org/2000/svg">
  <sodipodi:namedview
     id="namedview1"
     pagecolor="#ffffff"
     bordercolor="#000000"
     borderopacity="0.25"
     inkscape:showpageshadow="2"
     inkscape:pageopacity="0.0"
     inkscape:pagecheckerboard="0"
     inkscape:deskcolor="#d1d1d1"
     inkscape:zoom="1.4801236"
     inkscape:cx="36.821249"
     inkscape:cy="92.559837"
     inkscape:window-width="2560"
     inkscape:window-height="1356"
     inkscape:window-x="3832"
     inkscape:window-y="-8"
     inkscape:window-maximized="1"
     inkscape:current-layer="svg1" />
  <defs
     id="defs1">
    <clipPath
       clipPathUnits="userSpaceOnUse"
       id="clipPath7">
      <use
         x="0"
         y="0"
         xlink:href="#g6"
         id="use7" />
    </clipPath>
  </defs>
  <g
     id="g1"
     transform="translate(-229.99065,-219.89883)">
    <path
       style="fill:#000000"
       d="m 348.32418,1008.5641 c -8.80821,-2.7618 -17.62677,-10.65433 -21.66329,-19.38843 L 324.5,984.5 324,811.5 C 323.45903,624.32545 323.86596,636.85681 318.12781,630.66394 313.41178,625.57418 313.12893,625.52858 283,625 c -28.08696,-0.49275 -28.56522,-0.53623 -33,-3 -7.53195,-4.18442 -10.9522,-14.10148 -7.89148,-22.88146 0.74401,-2.13425 13.51527,-15.25446 38.83807,-39.89923 20.75125,-20.19562 66.48991,-64.8242 101.64148,-99.17463 35.15156,-34.35042 92.03133,-89.92542 126.39947,-123.5 34.36815,-33.57457 71.77894,-70.1584 83.13509,-81.2974 24.25266,-23.78888 27.24355,-25.70337 39.19818,-25.09094 4.98649,0.25545 8.5536,1.07607 11.67919,2.68681 2.74001,1.41203 12.90885,10.61369 26,23.52706 11.825,11.66442 38.825,38.0864 60,58.71551 21.175,20.6291 45.40675,44.2365 53.84832,52.46087 8.44158,8.22438 15.75408,15.10341 16.25,15.28674 C 799.61965,383.02606 800,371.94684 800,356.56865 v -26.59802 l 3.42316,-3.73532 3.42316,-3.73531 H 852.5 898.15368 l 3.42316,3.73531 3.42316,3.73532 v 77.33716 77.33717 l 28.25,27.94536 c 15.5375,15.36995 40.32299,39.86234 55.07886,54.42752 14.75584,14.56519 27.69334,28.15173 28.75004,30.19232 3.9148,7.56053 1.5725,19.05826 -4.8063,23.59214 -5.091,3.61863 -9.9608,4.18637 -35.9575,4.19212 -15.34887,0.003 -26.28435,0.42098 -28,1.0692 -3.49061,1.31884 -7.95982,5.47204 -10.15438,9.43638 -1.52407,2.75315 -1.70186,17.19545 -2.16072,175.52141 l -0.5,172.52142 -3.28675,6.67594 c -3.63541,7.38414 -9.46491,13.19303 -16.9969,16.93693 L 910.5,1009.5 l -279,0.1867 c -227.554,0.1523 -279.77,-0.055 -283.17582,-1.1226 z M 560,997.48906 c 0,-0.28101 -2.31887,-4.21097 -5.15303,-8.73325 C 526.14754,942.96228 526.10018,887.15241 554.72329,843 c 8.26864,-12.75473 14.78825,-20.43379 35.46793,-41.7755 20.99408,-21.66617 29.37075,-32.22133 36.68421,-46.2245 7.71022,-14.76288 11.51951,-28.29136 12.89521,-45.79672 l 0.72936,-9.28095 9.20437,8.02851 c 17.22124,15.02121 31.07623,32.8601 39.72608,51.14899 15.89465,33.60702 15.13401,67.71132 -2.49362,111.80559 -2.72763,6.82297 -4.75597,12.60877 -4.50741,12.85733 0.24855,0.24856 2.84112,-0.91979 5.76125,-2.59633 16.02908,-9.20278 29.90041,-25.78687 38.61471,-46.16642 l 1.4966,-3.5 2.00108,4.5 c 1.10059,2.475 3.26812,8.89512 4.81672,14.26694 8.09654,28.08536 7.62638,60.29346 -1.27169,87.11701 -6.51908,19.65199 -20.28179,44.33343 -31.70348,56.85562 -1.37434,1.50676 -2.27017,2.9682 -1.99073,3.24764 0.79696,0.79697 15.42556,-7.40204 25.4099,-14.24167 52.41465,-35.90595 90.04515,-93.20978 101.53977,-154.62504 2.66446,-14.23613 3.64728,-42.5187 1.95629,-56.29673 -3.87681,-31.58805 -14.3674,-58.96057 -33.91074,-88.4815 C 780.59056,661.85108 769.68996,649.20084 728.5,606.49546 688.797,565.33174 679.49601,554.63851 666.30624,534.99206 656.23204,519.98632 648.95589,502.18499 645.8724,485 c -1.92019,-10.70166 -1.462,-33.07453 0.94207,-46 1.07412,-5.775 1.79725,-10.67052 1.60696,-10.87894 -0.72892,-0.79837 -16.2469,7.24377 -24.24073,12.56268 -10.66389,7.09551 -25.52574,21.28898 -33.71022,32.19417 -11.25502,14.99645 -20.08835,35.43555 -24.13809,55.85219 -1.86322,9.39338 -2.26825,31.71185 -1.40228,77.2699 0.27411,14.42099 -0.0194,26.23256 -0.81738,32.89516 -3.51942,29.38421 -14.37855,52.96076 -33.09564,71.85484 -4.49499,4.5375 -8.50798,8.25 -8.91774,8.25 -0.40976,0 0.0674,-3.19898 1.06029,-7.10885 5.67198,-22.33477 4.98623,-48.33304 -1.85669,-70.39115 -2.43715,-7.85613 -10.26489,-25.52647 -11.28402,-25.47254 -0.28541,0.0151 -1.5662,2.15261 -2.8462,4.75 -5.05107,10.2497 -13.71674,23.52448 -26.54139,40.6583 -29.35666,39.22066 -41.90213,65.16522 -48.21485,99.71036 -2.18182,11.93959 -2.94067,38.13411 -1.50356,51.90146 5.52456,52.92506 29.40628,101.56334 69.48174,141.50872 18.01179,17.95333 30.53986,27.63235 50.60533,39.09701 7.29017,4.16533 9,4.89405 9,3.83575 z"
       id="path1" />
  </g>
  <text
     xml:space="preserve"
     style="font-size:298.667px;line-height:0.8;word-spacing:0px;writing-mode:lr-tb;direction:ltr;display:none;fill:#000000;stroke-width:4"
     x="823.61505"
     y="268.67734"
     id="text1"><tspan
       sodipodi:role="line"
       id="tspan1"
       style="font-style:normal;font-variant:normal;font-weight:normal;font-stretch:normal;font-size:298.667px;line-height:0.8;font-family:'Univers 47 CondensedLight';-inkscape-font-specification:'Univers 47 CondensedLight';word-spacing:0px;stroke-width:4"
       x="0"
       y="0"
       dy="0"
       rotate="0 0 0 0 0"
       dx="0">Home</tspan><tspan
       sodipodi:role="line"
       style="font-style:normal;font-variant:normal;font-weight:normal;font-stretch:normal;font-size:298.667px;line-height:0.8;font-family:'Univers 47 CondensedLight';-inkscape-font-specification:'Univers 47 CondensedLight';word-spacing:0px;stroke-width:4"
       x="0"
       y="0"
       id="tspan2"
       rotate="0 0 0">on</tspan><tspan
       sodipodi:role="line"
       style="font-style:normal;font-variant:normal;font-weight:normal;font-stretch:normal;font-size:298.667px;line-height:0.8;font-family:'Univers 47 CondensedLight';-inkscape-font-specification:'Univers 47 CondensedLight';word-spacing:0px;stroke-width:4"
       x="0"
       y="0"
       id="tspan3"
       rotate="0 0 0 0 0">Fire</tspan></text>
  <g
     id="g7"
     clip-path="url(#clipPath7)">
    <g
       inkscape:label="Clip"
       id="g6">
      <g
         id="text6"
         style="font-size:298.667px;line-height:0.8;word-spacing:0px;stroke-width:4"
         aria-label="Home&#10;on&#10;Fire">
        <path
           style="font-family:'Univers 47 CondensedLight';-inkscape-font-specification:'Univers 47 CondensedLight'"
           d="m 844.03174,54.010437 h 45.06255 v 85.312593 h 50.60422 V 54.010437 h 45.06255 V 268.67734 h -45.06255 v -96.25011 h -50.60422 v 96.25011 H 844.03174 Z M 1019.1778,190.94809 q 0,-45.79172 15.3125,-61.3959 15.3125,-15.75002 46.9584,-15.75002 30.0417,0 45.6458,15.60418 15.6042,15.45835 15.6042,61.54174 0,48.70838 -15.3125,64.8959 -15.3125,16.04168 -45.9375,16.04168 -33.8334,0 -48.1251,-17.64585 -14.1458,-17.64585 -14.1458,-54.39589 z m 41.8542,-1.02084 q 0,34.41671 3.9375,45.06255 4.0833,10.64585 16.4792,10.64585 11.375,0 15.3125,-10.93752 4.0833,-10.93751 4.0833,-44.77088 v 0 q 0,-31.06253 -4.375,-40.39588 -4.2292,-9.47917 -15.0208,-9.47917 -12.6875,0 -16.6251,10.64584 -3.7916,10.50001 -3.7916,29.75003 z m 19.9792,-94.791768 z m 88.0834,21.875028 h 41.8542 v 15.45835 q 11.5208,-18.66669 35.7292,-18.66669 20.8542,0 33.9792,18.66669 5.1042,-8.16668 14.4375,-13.41669 9.4792,-5.25 23.9167,-5.25 15.4584,0 25.9584,9.18751 10.6458,9.04168 10.6458,24.64586 v 121.0418 h -41.8542 V 164.11472 q 0,-24.06252 -15.3125,-24.06252 -15.1667,0 -15.1667,23.04169 V 268.67734 H 1241.428 V 164.11472 q 0,-24.06252 -14.875,-24.06252 -15.6042,0 -15.6042,23.04169 v 105.58345 h -41.8542 z m 256.9586,82.83342 v 0 0 q 0,23.33336 4.2292,34.56254 4.375,11.22918 16.0417,11.22918 18.2291,0 18.2291,-27.4167 h 41.8543 q 0,23.18752 -15.4584,38.50004 -15.3125,15.16668 -44.625,15.16668 -32.8126,0 -47.5418,-16.77085 -14.5833,-16.91668 -14.5833,-53.08339 v -11.08334 q 0,-45.79172 15.1667,-61.3959 15.1667,-15.75002 46.6667,-15.75002 31.0625,0 46.375,16.33335 15.3126,16.18752 15.3126,53.95839 v 9.18751 q 0,5.39584 0,6.56251 z m 0,-23.47919 h 39.8125 v 0 0 q 0,-23.4792 -5.1041,-29.89587 -5.1042,-6.41667 -14.5834,-6.41667 -11.2292,0 -15.75,8.31251 -4.375,8.16667 -4.375,28.00003 z m 19.9792,-81.229258 z m 2.7708,173.541858 z"
           id="path7" />
        <path
           style="font-family:'Univers 47 CondensedLight';-inkscape-font-specification:'Univers 47 CondensedLight'"
           d="m 836.74007,405.73581 q 0,-45.79172 15.31251,-61.39591 15.31252,-15.75001 46.95839,-15.75001 30.0417,0 45.64588,15.60418 15.60418,15.45835 15.60418,61.54174 0,48.70838 -15.31251,64.8959 -15.31252,16.04168 -45.93755,16.04168 -33.83337,0 -48.12506,-17.64585 -14.14584,-17.64585 -14.14584,-54.39589 z m 41.85421,-1.02084 q 0,34.4167 3.9375,45.06255 4.08334,10.64584 16.47919,10.64584 11.37501,0 15.31251,-10.93751 4.08334,-10.93751 4.08334,-44.77088 v 0 q 0,-31.06253 -4.375,-40.39588 -4.22917,-9.47917 -15.02085,-9.47917 -12.68752,0 -16.62502,10.64584 -3.79167,10.50001 -3.79167,29.75003 z m 19.97919,-94.79177 z m 91.29176,173.54186 V 331.79822 h 41.85417 v 15.45835 q 11.6667,-18.66668 36.7501,-18.66668 16.0417,0 26.9792,9.18751 10.9375,9.04167 10.9375,24.64586 v 121.0418 H 1064.532 V 378.90244 q 0,-24.06252 -16.4792,-24.06252 -16.3334,0 -16.3334,23.04169 V 483.46506 Z M 1050.3861,309.9232 Z m 0,173.54186 z"
           id="path8" />
        <path
           style="font-family:'Univers 47 CondensedLight';-inkscape-font-specification:'Univers 47 CondensedLight'"
           d="M 841.2609,755.96116 V 541.29425 h 112.72929 v 33.10421 h -67.66674 v 54.54172 h 64.89591 v 33.10421 h -64.89591 v 93.91677 z M 976.44854,604.29432 h 41.85426 v 151.66684 h -41.85426 z m 0,-63.5834 h 41.85426 v 33.25004 h -41.85426 z m 21.58336,215.25024 z m 58.0417,0 V 604.29432 h 41.8542 v 20.27086 q 9.4792,-23.47919 37.3334,-23.47919 v 0 0 37.77087 q -3.0625,-0.4375 -5.3958,-0.4375 -15.4584,0 -23.7709,7.00001 -8.1667,7.00001 -8.1667,26.54169 v 84.0001 z m 42.0001,-173.54186 z m -20.4167,173.54186 z m 115.9376,-68.83341 v 0 0 q 0,23.33336 4.2292,34.56253 4.375,11.22918 16.0417,11.22918 18.2292,0 18.2292,-27.41669 h 41.8542 q 0,23.18752 -15.4584,38.50004 -15.3125,15.16668 -44.625,15.16668 -32.8126,0 -47.5417,-16.77085 -14.5834,-16.91668 -14.5834,-53.08339 V 678.2319 q 0,-45.79171 15.1667,-61.3959 15.1667,-15.75001 46.6667,-15.75001 31.0625,0 46.3751,16.33335 15.3125,16.18752 15.3125,53.95839 v 9.18751 q 0,5.39584 0,6.56251 z m 0,-23.4792 h 39.8126 v 0 0 q 0,-23.47919 -5.1042,-29.89586 -5.1042,-6.41667 -14.5834,-6.41667 -11.2291,0 -15.75,8.3125 -4.375,8.16668 -4.375,28.00003 z m 19.9792,-81.22925 z m 2.7708,173.54186 z"
           id="path9" />
      </g>
    </g>
  </g>
</svg>
